<svg width="12" height="12" viewBox="0 0 12 12" fill="none" xmlns="http://www.w3.org/2000/svg">
<path fill-rule="evenodd" clip-rule="evenodd" d="M6 1C4.34314 1 3 2.34315 3 4V5.01355C2.95663 5.01595 2.91467 5.0188 2.87409 5.0221C2.59304 5.04505 2.33469 5.09435 2.09202 5.218C1.7157 5.40975 1.40974 5.7157 1.21799 6.092C1.09434 6.3347 1.04506 6.59305 1.0221 6.8741C0.99999 7.1447 0.999995 7.47685 1 7.87935V8.12065C0.999995 8.52315 0.99999 8.8553 1.0221 9.1259C1.04506 9.40695 1.09434 9.6653 1.21799 9.908C1.40974 10.2843 1.7157 10.5903 2.09202 10.782C2.33469 10.9056 2.59304 10.9549 2.87409 10.9779C3.14469 11 3.47687 11 3.87937 11H8.12065C8.52315 11 8.8553 11 9.1259 10.9779C9.40695 10.9549 9.6653 10.9056 9.908 10.782C10.2843 10.5903 10.5903 10.2843 10.782 9.908C10.9056 9.6653 10.9549 9.40695 10.9779 9.1259C11 8.8553 11 8.52315 11 8.12065V7.87935C11 7.47685 11 7.1447 10.9779 6.8741C10.9549 6.59305 10.9056 6.3347 10.782 6.092C10.5903 5.7157 10.2843 5.40975 9.908 5.218C9.6653 5.09435 9.40695 5.04505 9.1259 5.0221C9.08535 5.0188 9.0434 5.01595 9 5.01355V4C9 2.34315 7.65685 1 6 1ZM8 5V4C8 2.89543 7.10455 2 6 2C4.89543 2 4 2.89543 4 4V5H8Z" fill="url(#paint0_linear_35_974)"/>
<defs>
<linearGradient id="paint0_linear_35_974" x1="1" y1="1" x2="11.0764" y2="1.07759" gradientUnits="userSpaceOnUse">
<stop stop-color="#7E92F7"/>
<stop offset="1" stop-color="#5DF2E0"/>
</linearGradient>
</defs>
</svg>
