<svg width="18" height="18" viewBox="0 0 18 18" fill="none" xmlns="http://www.w3.org/2000/svg">
<path d="M7.75748 10.2426L16.4929 1.50719M7.86363 10.5154L10.0501 16.1377C10.2427 16.633 10.339 16.8806 10.4778 16.9529C10.5981 17.0156 10.7414 17.0157 10.8617 16.9531C11.0006 16.881 11.0972 16.6335 11.2904 16.1384L16.7732 2.0888C16.9476 1.6419 17.0348 1.41845 16.987 1.27566C16.9456 1.15166 16.8484 1.05435 16.7243 1.01292C16.5816 0.96523 16.3581 1.05243 15.9112 1.22682L1.86158 6.70959C1.36651 6.90279 1.11898 6.99938 1.04684 7.13824C0.984307 7.25861 0.98439 7.40194 1.04707 7.52223C1.11936 7.661 1.36702 7.75726 1.86231 7.94993L7.48462 10.1364C7.58511 10.1755 7.63536 10.195 7.67771 10.2252C7.71523 10.2519 7.74801 10.2848 7.7748 10.3223C7.805 10.3646 7.82453 10.4149 7.86363 10.5154Z" stroke="#666F94" stroke-width="1.45735" stroke-linecap="round" stroke-linejoin="round"/>
</svg>
