<svg width="20" height="20" viewBox="0 0 20 20" fill="none" xmlns="http://www.w3.org/2000/svg">
<path d="M17.8751 5.8693C18.0221 5.73876 18.0422 5.50564 17.92 5.34859C17.8727 5.28782 17.8085 5.24483 17.7366 5.22592L17.1897 5.07802C17.0042 5.02843 16.8915 4.82764 16.938 4.62954C16.9435 4.60571 16.9513 4.58254 16.9612 4.56037L17.2659 3.9022C17.3489 3.71824 17.2765 3.49724 17.1043 3.40858C17.0296 3.37011 16.9444 3.36158 16.8643 3.38454L15.4796 3.79867C15.375 3.83126 15.2622 3.80934 15.175 3.73951V3.73951C14.5758 3.25949 13.847 3 13.098 3C11.1862 3 9.63639 4.65545 9.63639 6.69755V6.96377V6.96377C9.63702 7.05781 9.57147 7.13737 9.48407 7.14865C7.53863 7.39269 5.67627 6.33519 3.66851 3.86523C3.57959 3.76047 3.44328 3.71765 3.31542 3.7543C3.20034 3.8108 3.12334 3.92993 3.11465 4.06489L3.11465 4.0649C2.83734 5.28164 2.94946 6.56253 3.43312 7.70328C3.47623 7.79442 3.442 7.90562 3.35668 7.95166C3.32472 7.96891 3.28853 7.97515 3.25312 7.96951L2.47771 7.80681C2.28895 7.7744 2.11133 7.91157 2.08098 8.11319C2.07449 8.15629 2.0752 8.20028 2.08308 8.24312L2.08308 8.24312C2.20416 9.39274 2.80787 10.4212 3.7239 11.0385C3.80993 11.083 3.8459 11.1936 3.80423 11.2854C3.78725 11.3229 3.75895 11.3531 3.7239 11.3712L3.35697 11.5265C3.17951 11.6025 3.09333 11.8178 3.16447 12.0073C3.16823 12.0174 3.1724 12.0272 3.17696 12.0368C3.58885 12.9995 4.41687 13.685 5.39241 13.8708C5.48227 13.9056 5.52867 14.0117 5.49606 14.1077C5.47857 14.1591 5.44061 14.1997 5.39241 14.2184H5.39241C4.45109 14.6342 3.44092 14.843 2.42232 14.8322C2.23114 14.7913 2.04516 14.9237 2.00692 15.128C1.96869 15.3322 2.09267 15.5308 2.28386 15.5717H2.28385C4.04759 16.4652 5.96786 16.9515 7.91941 16.9989C9.63601 17.0269 11.3221 16.5123 12.7657 15.5199L12.7657 15.5199C15.1776 13.8002 16.6228 10.9043 16.6151 7.80681V7.16344V7.16344C16.6159 7.05476 16.6615 6.95198 16.7397 6.88243L17.8751 5.8693Z" fill="#666F94"/>
</svg>
