<svg width="14" height="12" viewBox="0 0 14 12" fill="none" xmlns="http://www.w3.org/2000/svg">
<path fill-rule="evenodd" clip-rule="evenodd" d="M2.05759 1.28357C3.62111 -0.0239106 5.63447 0.214371 6.9959 1.37881C8.35573 0.213926 10.3476 -0.00745961 11.9286 1.27858C13.6587 2.68593 13.8664 5.08617 12.5342 6.76402C12.0716 7.34655 11.2109 8.19257 10.3481 8.99781C9.47568 9.81211 8.56879 10.6143 7.99157 11.1185L7.97877 11.1296C7.88422 11.2123 7.78962 11.2949 7.70241 11.3596C7.60437 11.4324 7.48399 11.5073 7.33045 11.5524C7.11395 11.6159 6.87826 11.6159 6.66176 11.5524C6.50822 11.5073 6.38784 11.4324 6.28981 11.3596C6.20259 11.2949 6.10805 11.2123 6.01344 11.1297L6.00064 11.1185C5.4234 10.6143 4.51655 9.81211 3.6441 8.99781C2.78134 8.19257 1.9206 7.34655 1.45802 6.76402C0.120641 5.07968 0.366361 2.69784 2.05759 1.28357ZM9.44786 4.50507C9.67506 4.28268 9.67506 3.92214 9.44786 3.69976C9.22066 3.47738 8.85225 3.47738 8.62505 3.69976L6.41827 5.85958L5.66604 5.12336C5.43882 4.90097 5.07044 4.90097 4.84322 5.12336C4.616 5.34572 4.616 5.70629 4.84322 5.92865L6.00686 7.06753C6.23406 7.28989 6.60247 7.28989 6.82967 7.06753L9.44786 4.50507Z" fill="white"/>
</svg>
