<svg width="14" height="14" viewBox="0 0 14 14" fill="none" xmlns="http://www.w3.org/2000/svg">
<path d="M13.1322 2.16076C13.4893 1.80371 13.4893 1.22482 13.1322 0.867761C12.7752 0.510714 12.1963 0.510714 11.8392 0.867761L7.00001 5.707L2.16079 0.867761C1.80373 0.510714 1.22484 0.510714 0.867786 0.867761C0.510739 1.22482 0.510739 1.80371 0.867786 2.16076L5.70703 6.99999L0.867786 11.8392C0.510739 12.1962 0.510739 12.7752 0.867786 13.1322C1.22484 13.4892 1.80373 13.4892 2.16079 13.1322L7.00001 8.29297L11.8392 13.1322C12.1963 13.4892 12.7752 13.4892 13.1322 13.1322C13.4893 12.7752 13.4893 12.1962 13.1322 11.8392L8.293 6.99999L13.1322 2.16076Z" fill="url(#paint0_linear_154_205)"/>
<defs>
<linearGradient id="paint0_linear_154_205" x1="0.6" y1="0.599976" x2="13.4978" y2="0.699292" gradientUnits="userSpaceOnUse">
<stop stop-color="#F1F3FF"/>
<stop offset="1" stop-color="#8090C6"/>
</linearGradient>
</defs>
</svg>
